<svg fill="none" height="904" viewBox="0 0 1920 904" width="1920" xmlns="http://www.w3.org/2000/svg" xmlns:xlink="http://www.w3.org/1999/xlink"><filter id="a" color-interpolation-filters="sRGB" filterUnits="userSpaceOnUse" height="903.6" width="1991.44" x="-35.9453" y=".199951"><feFlood flood-opacity="0" result="BackgroundImageFix"/><feColorMatrix in="SourceAlpha" type="matrix" values="0 0 0 0 0 0 0 0 0 0 0 0 0 0 0 0 0 0 127 0"/><feOffset dy="4"/><feGaussianBlur stdDeviation="50"/><feColorMatrix type="matrix" values="0 0 0 0 0 0 0 0 0 0 0 0 0 0 0 0 0 0 0.25 0"/><feBlend in2="BackgroundImageFix" mode="normal" result="effect1_dropShadow"/><feBlend in="SourceGraphic" in2="effect1_dropShadow" mode="normal" result="shape"/></filter><g filter="url(#a)"><path d="m285.255 340.2h-140l-27.6 64.8h-53.6003l126.0003-280h51.2l126.4 280h-54.4zm-17.2-40.8-52.8-122.4-52.4 122.4zm337.656-191.2v296.8h-48v-27.6c-8.267 10.133-18.533 17.733-30.8 22.8-12 5.067-25.333 7.6-40 7.6-20.533 0-39.067-4.533-55.6-13.6-16.267-9.067-29.067-21.867-38.4-38.4-9.333-16.8-14-36-14-57.6s4.667-40.667 14-57.2 22.133-29.333 38.4-38.4c16.533-9.067 35.067-13.6 55.6-13.6 14.133 0 27.067 2.4 38.8 7.2s21.733 12 30 21.6v-109.6zm-112.8 256.8c12 0 22.8-2.667 32.4-8 9.6-5.6 17.2-13.467 22.8-23.6s8.4-21.867 8.4-35.2-2.8-25.067-8.4-35.2-13.2-17.867-22.8-23.2c-9.6-5.6-20.4-8.4-32.4-8.4s-22.8 2.8-32.4 8.4c-9.6 5.333-17.2 13.067-22.8 23.2s-8.4 21.867-8.4 35.2 2.8 25.067 8.4 35.2 13.2 18 22.8 23.6c9.6 5.333 20.4 8 32.4 8zm378.209-173.6-91.6 213.6h-51.6l-91.6-213.6h52l66.4 158.4 68.4-158.4zm31.25 0h50v213.6h-50zm25.2-35.2c-9.066 0-16.666-2.8-22.8-8.4-6.133-5.867-9.2-13.067-9.2-21.6s3.067-15.6 9.2-21.2c6.134-5.8667 13.734-8.8 22.8-8.8 9.067 0 16.667 2.8 22.8 8.4 6.134 5.333 9.2 12.133 9.2 20.4 0 8.8-3.066 16.267-9.2 22.4-5.866 5.867-13.466 8.8-22.8 8.8zm156.43 251.6c-17.34 0-34.27-2.267-50.8-6.8-16.54-4.533-29.74-10.267-39.605-17.2l19.205-38c9.6 6.4 21.06 11.6 34.4 15.6 13.6 3.733 26.93 5.6 40 5.6 29.86 0 44.8-7.867 44.8-23.6 0-7.467-3.87-12.667-11.6-15.6-7.47-2.933-19.6-5.733-36.4-8.4-17.6-2.667-32-5.733-43.2-9.2-10.94-3.467-20.54-9.467-28.8-18-8-8.8-12.005-20.933-12.005-36.4 0-20.267 8.405-36.4 25.205-48.4 17.06-12.267 40-18.4 68.8-18.4 14.66 0 29.33 1.733 44 5.2 14.66 3.2 26.66 7.6 36 13.2l-19.2 38c-18.14-10.667-38.54-16-61.2-16-14.67 0-25.87 2.267-33.6 6.8-7.47 4.267-11.2 10-11.2 17.2 0 8 4 13.733 12 17.2 8.26 3.2 20.93 6.267 38 9.2 17.06 2.667 31.06 5.733 42 9.2 10.93 3.467 20.26 9.333 28 17.6 8 8.267 12 20 12 35.2 0 20-8.67 36-26 48-17.34 12-40.94 18-70.8 18zm235.85 0c-21.6 0-41.06-4.667-58.4-14-17.33-9.333-30.93-22.267-40.8-38.8-9.6-16.8-14.4-35.733-14.4-56.8s4.8-39.867 14.4-56.4c9.87-16.533 23.47-29.467 40.8-38.8 17.34-9.333 36.8-14 58.4-14 21.87 0 41.47 4.667 58.8 14 17.34 9.333 30.8 22.267 40.4 38.8 9.87 16.533 14.8 35.333 14.8 56.4s-4.93 40-14.8 56.8c-9.6 16.533-23.06 29.467-40.4 38.8-17.33 9.333-36.93 14-58.8 14zm0-42.8c18.4 0 33.6-6.133 45.6-18.4s18-28.4 18-48.4-6-36.133-18-48.4-27.2-18.4-45.6-18.4-33.6 6.133-45.6 18.4c-11.73 12.267-17.6 28.4-17.6 48.4s5.87 36.133 17.6 48.4c12 12.267 27.2 18.4 45.6 18.4zm209.42-142.4c14.4-22.4 39.73-33.6 76-33.6v47.6c-4.27-.8-8.14-1.2-11.6-1.2-19.47 0-34.67 5.733-45.6 17.2-10.94 11.2-16.4 27.467-16.4 48.8v103.6h-50v-213.6h47.6zm326.23-31.2-100 230.8c-9.34 23.2-20.67 39.467-34 48.8-13.34 9.6-29.47 14.4-48.4 14.4-10.67 0-21.2-1.733-31.6-5.2s-18.94-8.267-25.6-14.4l20-36.8c4.8 4.533 10.4 8.133 16.8 10.8 6.66 2.667 13.33 4 20 4 8.8 0 16-2.267 21.6-6.8 5.86-4.533 11.2-12.133 16-22.8l3.6-8.4-93.2-214.4h52l67.2 158 67.6-158zm-1280.008 460c15.467 5.067 27.734 13.6 36.8 25.6 9.067 11.733 13.6 26.4 13.6 44 0 24.267-9.333 43.067-28 56.4-18.666 13.067-45.866 19.6-81.6 19.6h-139.2v-280h131.2c33.067 0 58.534 6.533 76.4 19.6 17.867 12.8 26.8 30.533 26.8 53.2 0 13.867-3.2 26.133-9.6 36.8s-15.2 18.933-26.4 24.8zm-146.4-93.6v77.2h73.6c18.134 0 32-3.2 41.6-9.6 9.867-6.667 14.8-16.267 14.8-28.8 0-12.8-4.933-22.4-14.8-28.8-9.6-6.667-23.466-10-41.6-10zm84 198.4c40.267 0 60.4-13.467 60.4-40.4s-20.133-40.4-60.4-40.4h-84v80.8zm259.497 43.6c-21.6 0-41.067-4.667-58.4-14s-30.933-22.267-40.8-38.8c-9.6-16.8-14.4-35.733-14.4-56.8s4.8-39.867 14.4-56.4c9.867-16.533 23.467-29.467 40.8-38.8s36.8-14 58.4-14c21.867 0 41.467 4.667 58.8 14s30.8 22.267 40.4 38.8c9.867 16.533 14.8 35.333 14.8 56.4s-4.933 40-14.8 56.8c-9.6 16.533-23.067 29.467-40.4 38.8s-36.933 14-58.8 14zm0-42.8c18.4 0 33.6-6.133 45.6-18.4s18-28.4 18-48.4-6-36.133-18-48.4-27.2-18.4-45.6-18.4-33.6 6.133-45.6 18.4c-11.733 12.267-17.6 28.4-17.6 48.4s5.867 36.133 17.6 48.4c12 12.267 27.2 18.4 45.6 18.4zm240.681-176c31.46 0 55.46 7.6 72 22.8 16.8 14.933 25.2 37.6 25.2 68v125.2h-47.2v-26c-6.14 9.333-14.94 16.533-26.4 21.6-11.2 4.8-24.8 7.2-40.803 7.2-16 0-30-2.667-42-8-12-5.6-21.333-13.2-28-22.8-6.4-9.867-9.6-20.933-9.6-33.2 0-19.2 7.067-34.533 21.2-46 14.4-11.733 36.934-17.6 67.603-17.6h55.2v-3.2c0-14.933-4.54-26.4-13.6-34.4-8.8-8-22-12-39.6-12-12.003 0-23.869 1.867-35.603 5.6-11.466 3.733-21.2 8.933-29.2 15.6l-19.6-36.4c11.2-8.533 24.667-15.067 40.4-19.6 15.734-4.533 32.4-6.8 50.003-6.8zm-6.8 182.4c12.53 0 23.6-2.8 33.2-8.4 9.86-5.867 16.8-14.133 20.8-24.8v-24.8h-51.6c-28.803 0-43.203 9.467-43.203 28.4 0 9.067 3.6 16.267 10.8 21.6s17.2 8 30.003 8zm215.77-148.8c14.4-22.4 39.73-33.6 76-33.6v47.6c-4.27-.8-8.14-1.2-11.6-1.2-19.47 0-34.67 5.733-45.6 17.2-10.94 11.2-16.4 27.467-16.4 48.8v103.6h-50v-213.6h47.6zm325.66-114.4v296.8h-48v-27.6c-8.27 10.133-18.53 17.733-30.8 22.8-12 5.067-25.33 7.6-40 7.6-20.53 0-39.07-4.533-55.6-13.6-16.27-9.067-29.07-21.867-38.4-38.4-9.33-16.8-14-36-14-57.6s4.67-40.667 14-57.2 22.13-29.333 38.4-38.4c16.53-9.067 35.07-13.6 55.6-13.6 14.13 0 27.07 2.4 38.8 7.2s21.73 12 30 21.6v-109.6zm-112.8 256.8c12 0 22.8-2.667 32.4-8 9.6-5.6 17.2-13.467 22.8-23.6s8.4-21.867 8.4-35.2-2.8-25.067-8.4-35.2-13.2-17.867-22.8-23.2c-9.6-5.6-20.4-8.4-32.4-8.4s-22.8 2.8-32.4 8.4c-9.6 5.333-17.2 13.067-22.8 23.2s-8.4 21.867-8.4 35.2 2.8 25.067 8.4 35.2 13.2 18 22.8 23.6c9.6 5.333 20.4 8 32.4 8z" fill="#2b2729"/></g></svg>