<svg fill="none" height="89" viewBox="0 0 245 89" width="245" xmlns="http://www.w3.org/2000/svg"><path d="m93.688 39.096c1.648 0 3.12-.56 4.112-1.648l-.752-.752c-.912.944-2.032 1.344-3.312 1.344-2.704 0-4.736-1.984-4.736-4.64s2.032-4.64 4.736-4.64c1.28 0 2.4.4 3.312 1.328l.752-.752c-.992-1.088-2.464-1.632-4.096-1.632-3.376 0-5.872 2.416-5.872 5.696s2.496 5.696 5.856 5.696zm9.461-.016c2.464 0 4.272-1.792 4.272-4.288s-1.808-4.272-4.272-4.272-4.288 1.776-4.288 4.272 1.824 4.288 4.288 4.288zm0-1.008c-1.792 0-3.136-1.312-3.136-3.28s1.344-3.28 3.136-3.28 3.12 1.312 3.12 3.28-1.328 3.28-3.12 3.28zm17.087-7.552c-1.52 0-2.72.688-3.328 1.776-.512-1.184-1.6-1.776-2.992-1.776-1.408 0-2.496.592-3.088 1.6v-1.536h-1.088v8.416h1.136v-4.416c0-1.92 1.104-3.04 2.816-3.04 1.536 0 2.432.912 2.432 2.688v4.768h1.136v-4.416c0-1.92 1.088-3.04 2.816-3.04 1.52 0 2.416.912 2.416 2.688v4.768h1.136v-4.88c0-2.416-1.344-3.6-3.392-3.6zm7.049-1.776c.48 0 .832-.368.832-.832 0-.432-.368-.784-.832-.784s-.832.368-.832.8c0 .448.368.816.832.816zm-.576 10.256h1.136v-8.416h-1.136zm8.585-8.48c-1.456 0-2.592.592-3.2 1.616v-1.552h-1.088v8.416h1.136v-4.416c0-1.92 1.136-3.04 2.944-3.04 1.6 0 2.528.912 2.528 2.688v4.768h1.136v-4.88c0-2.416-1.408-3.6-3.456-3.6zm13.275.064v1.616c-.704-1.104-1.92-1.68-3.328-1.68-2.4 0-4.224 1.648-4.224 4.064s1.824 4.096 4.224 4.096c1.376 0 2.576-.56 3.28-1.632v1.072c0 2.08-.976 3.056-3.104 3.056-1.296 0-2.512-.432-3.312-1.152l-.576.864c.88.832 2.384 1.296 3.92 1.296 2.784 0 4.208-1.312 4.208-4.208v-7.392zm-3.216 7.088c-1.856 0-3.184-1.264-3.184-3.088s1.328-3.072 3.184-3.072 3.2 1.248 3.2 3.072-1.344 3.088-3.2 3.088zm13.925 1.408c2.192 0 3.472-.944 3.472-2.4 0-3.232-5.456-1.52-5.456-3.792 0-.8.672-1.392 2.192-1.392.864 0 1.744.208 2.48.72l.496-.912c-.704-.48-1.888-.784-2.976-.784-2.144 0-3.328 1.024-3.328 2.4 0 3.328 5.456 1.6 5.456 3.792 0 .832-.656 1.376-2.256 1.376-1.184 0-2.32-.416-2.992-.944l-.512.896c.688.592 2.032 1.04 3.424 1.04zm9.012 0c2.464 0 4.272-1.792 4.272-4.288s-1.808-4.272-4.272-4.272-4.288 1.776-4.288 4.272 1.824 4.288 4.288 4.288zm0-1.008c-1.792 0-3.136-1.312-3.136-3.28s1.344-3.28 3.136-3.28 3.12 1.312 3.12 3.28-1.328 3.28-3.12 3.28zm10.031 1.008c2.464 0 4.272-1.792 4.272-4.288s-1.808-4.272-4.272-4.272-4.288 1.776-4.288 4.272 1.824 4.288 4.288 4.288zm0-1.008c-1.792 0-3.136-1.312-3.136-3.28s1.344-3.28 3.136-3.28 3.12 1.312 3.12 3.28-1.328 3.28-3.12 3.28zm10.879-7.552c-1.456 0-2.592.592-3.2 1.616v-1.552h-1.088v8.416h1.136v-4.416c0-1.92 1.136-3.04 2.944-3.04 1.6 0 2.528.912 2.528 2.688v4.768h1.136v-4.88c0-2.416-1.408-3.6-3.456-3.6zm-90.08 29.48h3.4l-6.26-14h-3.2l-6.24 14h3.32l1.24-3h6.5zm-6.7-5.46 2.22-5.36 2.22 5.36zm17.693-5.46c-1.44 0-2.6.46-3.38 1.4v-1.24h-2.98v14.64h3.12v-5.02c.8.88 1.9 1.3 3.24 1.3 3.02 0 5.36-2.16 5.36-5.54s-2.34-5.54-5.36-5.54zm-.54 8.52c-1.56 0-2.74-1.12-2.74-2.98s1.18-2.98 2.74-2.98 2.739 1.12 2.739 2.98-1.179 2.98-2.739 2.98zm14.348-8.52c-1.44 0-2.6.46-3.38 1.4v-1.24h-2.98v14.64h3.12v-5.02c.8.88 1.9 1.3 3.24 1.3 3.02 0 5.36-2.16 5.36-5.54s-2.34-5.54-5.36-5.54zm-.54 8.52c-1.56 0-2.74-1.12-2.74-2.98s1.18-2.98 2.74-2.98 2.74 1.12 2.74 2.98-1.18 2.98-2.74 2.98zm18.473 2.64c4 0 5.94-2 5.94-4.34 0-5.14-8.14-3.36-8.14-5.94 0-.88.74-1.6 2.66-1.6 1.24 0 2.58.36 3.88 1.1l1-2.46c-1.3-.82-3.1-1.24-4.86-1.24-3.98 0-5.9 1.98-5.9 4.36 0 5.2 8.14 3.4 8.14 6.02 0 .86-.78 1.5-2.7 1.5-1.68 0-3.44-.6-4.62-1.46l-1.1 2.44c1.24.96 3.48 1.62 5.7 1.62zm14.034-2.96c-.34.26-.8.4-1.26.4-.84 0-1.34-.5-1.34-1.42v-4.38h2.68v-2.4h-2.68v-2.62h-3.12v2.62h-1.66v2.4h1.66v4.42c0 2.56 1.48 3.86 4.02 3.86.96 0 1.9-.22 2.54-.68zm7.379 2.88c3.42 0 5.9-2.3 5.9-5.54s-2.48-5.54-5.9-5.54-5.92 2.3-5.92 5.54 2.5 5.54 5.92 5.54zm0-2.56c-1.56 0-2.76-1.12-2.76-2.98s1.2-2.98 2.76-2.98 2.74 1.12 2.74 2.98-1.18 2.98-2.74 2.98zm10.966-6.94v-1.42h-2.98v10.76h3.12v-5.08c0-2.06 1.14-3 2.86-3 .24 0 .44.02.7.04v-2.88c-1.66 0-2.94.54-3.7 1.58zm15.997 4c0-3.46-2.44-5.58-5.6-5.58-3.28 0-5.74 2.32-5.74 5.54 0 3.2 2.42 5.54 6.14 5.54 1.94 0 3.44-.6 4.44-1.74l-1.66-1.8c-.74.7-1.56 1.04-2.7 1.04-1.64 0-2.78-.82-3.08-2.16h8.14c.02-.26.06-.6.06-.84zm-5.58-3.22c1.4 0 2.42.88 2.64 2.24h-5.3c.22-1.38 1.24-2.24 2.66-2.24z" fill="#fff"/><path d="m63.0551 45.1257c.0163-1.3777.3901-2.7288 1.0865-3.9268.6963-1.198 1.6925-2.2038 2.8951-2.9231-.7644-1.0635-1.7707-1.9394-2.94-2.559-1.1692-.6196-2.4694-.9659-3.7987-1.0119-2.8695-.2842-5.5991 1.6505-7.053 1.6505-1.4548 0-3.7009-1.6087-6.0808-1.5644-1.5618.0425-3.0856.4806-4.422 1.2716-1.3364.7909-2.4396 1.9075-3.2015 3.2404-3.2467 5.5083-.8287 13.6687 2.3352 18.1382 1.5483 2.185 3.3938 4.6461 5.8172 4.5564 2.3353-.0896 3.2168-1.4738 6.0364-1.4738 2.8204 0 3.6136 1.4738 6.0806 1.4293 2.5108-.0452 4.1044-2.2301 5.6401-4.4233 1.0992-1.5771 1.9581-3.3017 2.5498-5.1201-1.4619-.61-2.7091-1.6248-3.5878-2.9191-.8787-1.2944-1.3504-2.8117-1.3571-4.3649zm-4.6365-13.3778c1.3905-1.5935 2.0794-3.6598 1.9164-5.7479-2.0993.199-4.0412 1.1752-5.4274 2.7285-.6917.7524-1.2212 1.6333-1.557 2.59s-.471 1.9696-.3976 2.9785c1.0503.0142 2.0897-.2084 3.0376-.6505s1.7788-1.0918 2.428-1.8986z" fill="#fff"/><rect height="87" rx="15" stroke="#fff" stroke-width="2" width="243" x="1" y="1"/></svg>