<svg fill="none" height="89" viewBox="0 0 245 89" width="245" xmlns="http://www.w3.org/2000/svg"><g fill="#fff"><path d="m93.688 39.096c1.648 0 3.12-.56 4.112-1.648l-.752-.752c-.912.944-2.032 1.344-3.312 1.344-2.704 0-4.736-1.984-4.736-4.64s2.032-4.64 4.736-4.64c1.28 0 2.4.4 3.312 1.328l.752-.752c-.992-1.088-2.464-1.632-4.096-1.632-3.376 0-5.872 2.416-5.872 5.696s2.496 5.696 5.856 5.696zm9.461-.016c2.464 0 4.272-1.792 4.272-4.288s-1.808-4.272-4.272-4.272-4.288 1.776-4.288 4.272 1.824 4.288 4.288 4.288zm0-1.008c-1.792 0-3.136-1.312-3.136-3.28s1.344-3.28 3.136-3.28 3.12 1.312 3.12 3.28-1.328 3.28-3.12 3.28zm17.087-7.552c-1.52 0-2.72.688-3.328 1.776-.512-1.184-1.6-1.776-2.992-1.776-1.408 0-2.496.592-3.088 1.6v-1.536h-1.088v8.416h1.136v-4.416c0-1.92 1.104-3.04 2.816-3.04 1.536 0 2.432.912 2.432 2.688v4.768h1.136v-4.416c0-1.92 1.088-3.04 2.816-3.04 1.52 0 2.416.912 2.416 2.688v4.768h1.136v-4.88c0-2.416-1.344-3.6-3.392-3.6zm7.049-1.776c.48 0 .832-.368.832-.832 0-.432-.368-.784-.832-.784s-.832.368-.832.8c0 .448.368.816.832.816zm-.576 10.256h1.136v-8.416h-1.136zm8.585-8.48c-1.456 0-2.592.592-3.2 1.616v-1.552h-1.088v8.416h1.136v-4.416c0-1.92 1.136-3.04 2.944-3.04 1.6 0 2.528.912 2.528 2.688v4.768h1.136v-4.88c0-2.416-1.408-3.6-3.456-3.6zm13.275.064v1.616c-.704-1.104-1.92-1.68-3.328-1.68-2.4 0-4.224 1.648-4.224 4.064s1.824 4.096 4.224 4.096c1.376 0 2.576-.56 3.28-1.632v1.072c0 2.08-.976 3.056-3.104 3.056-1.296 0-2.512-.432-3.312-1.152l-.576.864c.88.832 2.384 1.296 3.92 1.296 2.784 0 4.208-1.312 4.208-4.208v-7.392zm-3.216 7.088c-1.856 0-3.184-1.264-3.184-3.088s1.328-3.072 3.184-3.072 3.2 1.248 3.2 3.072-1.344 3.088-3.2 3.088zm13.925 1.408c2.192 0 3.472-.944 3.472-2.4 0-3.232-5.456-1.52-5.456-3.792 0-.8.672-1.392 2.192-1.392.864 0 1.744.208 2.48.72l.496-.912c-.704-.48-1.888-.784-2.976-.784-2.144 0-3.328 1.024-3.328 2.4 0 3.328 5.456 1.6 5.456 3.792 0 .832-.656 1.376-2.256 1.376-1.184 0-2.32-.416-2.992-.944l-.512.896c.688.592 2.032 1.04 3.424 1.04zm9.012 0c2.464 0 4.272-1.792 4.272-4.288s-1.808-4.272-4.272-4.272-4.288 1.776-4.288 4.272 1.824 4.288 4.288 4.288zm0-1.008c-1.792 0-3.136-1.312-3.136-3.28s1.344-3.28 3.136-3.28 3.12 1.312 3.12 3.28-1.328 3.28-3.12 3.28zm10.031 1.008c2.464 0 4.272-1.792 4.272-4.288s-1.808-4.272-4.272-4.272-4.288 1.776-4.288 4.272 1.824 4.288 4.288 4.288zm0-1.008c-1.792 0-3.136-1.312-3.136-3.28s1.344-3.28 3.136-3.28 3.12 1.312 3.12 3.28-1.328 3.28-3.12 3.28zm10.879-7.552c-1.456 0-2.592.592-3.2 1.616v-1.552h-1.088v8.416h1.136v-4.416c0-1.92 1.136-3.04 2.944-3.04 1.6 0 2.528.912 2.528 2.688v4.768h1.136v-4.88c0-2.416-1.408-3.6-3.456-3.6zm-94.48 15.48h-6.06v14h3.24v-3.86h2.82c3.74 0 6.08-1.94 6.08-5.06 0-3.14-2.34-5.08-6.08-5.08zm-.18 7.5h-2.64v-4.86h2.64c1.98 0 2.98.9 2.98 2.44 0 1.52-1 2.42-2.98 2.42zm8.548 6.5h3.12v-14.84h-3.12zm10.356-10.92c-1.72 0-3.46.46-4.64 1.3l1.12 2.18c.78-.62 1.96-1 3.1-1 1.68 0 2.48.78 2.48 2.12h-2.48c-3.28 0-4.62 1.32-4.62 3.22 0 1.86 1.5 3.26 4.02 3.26 1.58 0 2.7-.52 3.28-1.5v1.34h2.92v-6.14c0-3.26-1.9-4.78-5.18-4.78zm-.24 8.98c-1.1 0-1.76-.52-1.76-1.3 0-.72.46-1.26 1.92-1.26h2.14v1.1c-.36.98-1.26 1.46-2.3 1.46zm15.729-8.82-3.04 7.3-3.02-7.3h-3.221l4.661 10.84-.04.1c-.42.96-.9 1.34-1.76 1.34-.62 0-1.28-.26-1.76-.68l-1.141 2.22c.701.62 1.901.98 3.001.98 1.94 0 3.42-.78 4.46-3.38l4.86-11.42zm14.757 11c4 0 5.94-2 5.94-4.34 0-5.14-8.14-3.36-8.14-5.94 0-.88.74-1.6 2.66-1.6 1.24 0 2.58.36 3.88 1.1l1-2.46c-1.3-.82-3.1-1.24-4.86-1.24-3.98 0-5.9 1.98-5.9 4.36 0 5.2 8.14 3.4 8.14 6.02 0 .86-.78 1.5-2.7 1.5-1.68 0-3.44-.6-4.62-1.46l-1.1 2.44c1.24.96 3.48 1.62 5.7 1.62zm14.034-2.96c-.34.26-.8.4-1.26.4-.84 0-1.34-.5-1.34-1.42v-4.38h2.68v-2.4h-2.68v-2.62h-3.12v2.62h-1.66v2.4h1.66v4.42c0 2.56 1.48 3.86 4.02 3.86.96 0 1.9-.22 2.54-.68zm7.379 2.88c3.42 0 5.9-2.3 5.9-5.54s-2.48-5.54-5.9-5.54-5.92 2.3-5.92 5.54 2.5 5.54 5.92 5.54zm0-2.56c-1.56 0-2.76-1.12-2.76-2.98s1.2-2.98 2.76-2.98 2.74 1.12 2.74 2.98-1.18 2.98-2.74 2.98zm10.965-6.94v-1.42h-2.98v10.76h3.12v-5.08c0-2.06 1.14-3 2.86-3 .24 0 .44.02.7.04v-2.88c-1.66 0-2.94.54-3.7 1.58zm15.998 4c0-3.46-2.44-5.58-5.6-5.58-3.28 0-5.74 2.32-5.74 5.54 0 3.2 2.42 5.54 6.14 5.54 1.94 0 3.44-.6 4.44-1.74l-1.66-1.8c-.74.7-1.56 1.04-2.7 1.04-1.64 0-2.78-.82-3.08-2.16h8.14c.02-.26.06-.6.06-.84zm-5.58-3.22c1.4 0 2.42.88 2.64 2.24h-5.3c.22-1.38 1.24-2.24 2.66-2.24z"/><path d="m61.6063 49.7776-3.9407-3.8748-14.4664 14.2657z"/><path d="m61.6063 39.2297-18.4071-10.3908 14.4664 14.2656z"/><path d="m67.3742 46.4622c1.1798-.9213 1.1798-2.9975-.0784-3.9188l-3.861-2.1972-4.3078 4.158 4.3078 4.158z"/><path d="m39.4217 61 16.8218-16.5027-16.8218-16.4959v-.0014c-.8511.4386-1.4217 1.2375-1.4217 2.2756v28.4488c0 1.0381.5706 1.837 1.4217 2.2756z"/></g><rect height="87" rx="15" stroke="#fff" stroke-width="2" width="243" x="1" y="1"/></svg>