<?xml version="1.0" encoding="utf-8"?>
<!-- Generator: Adobe Illustrator 24.3.0, SVG Export Plug-In . SVG Version: 6.00 Build 0)  -->
<svg version="1.1" id="Layer_1" xmlns="http://www.w3.org/2000/svg" xmlns:xlink="http://www.w3.org/1999/xlink" x="0px" y="0px"
	 viewBox="0 0 200 200" style="enable-background:new 0 0 200 200;" xml:space="preserve">
<style type="text/css">
	.st0{fill:#FFC4DD;}
	.st1{fill:#FFFFFF;}
	.st2{fill:#2C13DD;}
</style>
<path class="st2" d="M150.3,200H49.7C22.2,200,0,177.8,0,150.3V49.7C0,22.2,22.2,0,49.7,0h100.7C177.8,0,200,22.2,200,49.7v100.7
	C200,177.8,177.8,200,150.3,200z"/>
<g>
	<circle class="st0" cx="125.5" cy="149.5" r="11"/>
	<circle class="st0" cx="74.5" cy="50.5" r="11"/>
	<path class="st0" d="M150,111.5h-13.5v-22h14c6.1,0,11-4.9,11-11s-4.9-11-11-11h-14v-17c0-6.1-4.9-11-11-11s-11,4.9-11,11v17h-65
		c-6.1,0-11,4.9-11,11s4.9,11,11,11h14v22H50c-6.4,0-11.5,5.1-11.5,11.5s5.1,11.5,11.5,11.5h13.5v15c0,6.1,4.9,11,11,11
		s11-4.9,11-11v-15H150c6.4,0,11.5-5.1,11.5-11.5S156.4,111.5,150,111.5z M85.5,89.5h29v22h-29V89.5z"/>
</g>
</svg>
