<?xml version="1.0" encoding="utf-8"?>
<!-- Generator: Adobe Illustrator 24.3.0, SVG Export Plug-In . SVG Version: 6.00 Build 0)  -->
<svg version="1.1" id="Layer_1" xmlns="http://www.w3.org/2000/svg" xmlns:xlink="http://www.w3.org/1999/xlink" x="0px" y="0px"
	 viewBox="0 0 801.9 121" style="enable-background:new 0 0 801.9 121;" xml:space="preserve">
<style type="text/css">
	.st0{fill:#FFC4DD;}
	.st1{fill:#FFFFFF;}
	.st2{fill:#2C13DD;}
</style>
<path class="st1" d="M171.7,12.1h16.4v37.7c2.2-2.9,4.8-5.1,8-6.7c3.2-1.7,6.8-2.5,10.8-2.5c3.8,0,7.3,0.6,10.4,1.9
	c3.1,1.2,5.8,3,7.9,5.3c2.2,2.3,3.8,5.2,5,8.5c1.2,3.3,1.8,7,1.8,11.3v39.1h-17V70.1c0-4.6-1.1-8.3-3.4-10.9
	c-2.2-2.7-5.4-4.1-9.8-4.1c-3.9,0-7.2,1.4-9.8,4.2c-2.6,2.7-4,6.6-4,11.6v35.8h-16.4V12.1z"/>
<path class="st1" d="M265.6,108c-8,0-14.2-2.4-18.6-7.2s-6.6-11.5-6.6-20V41.9h16.9v36.6c0,4.6,1.1,8.2,3.2,10.8c2.2,2.6,5.5,4,10,4
	c3.9,0,7.2-1.4,9.7-4.1c2.6-2.7,3.8-6.6,3.8-11.6V41.9l16.8-0.1v64.8l-16.6,0.1v-8.2c-2.1,3-4.7,5.3-7.9,7
	C273.2,107.2,269.6,108,265.6,108z"/>
<path class="st1" d="M310.5,41.9h16.6v7.7c2-2.8,4.5-5,7.6-6.6c3-1.6,6.5-2.4,10.4-2.4c4.9,0,9,1,12.2,2.9c3.3,1.8,5.8,4.5,7.6,8
	c2.1-3.4,4.8-6,8.3-7.9c3.5-2,7.5-3,12-3c8.2,0,14.4,2.4,18.5,7.1c4.2,4.6,6.2,11,6.2,19.2v39.8h-17V69.2c0-4.4-1-7.8-2.9-10.3
	c-1.8-2.6-4.9-3.8-9.1-3.8c-3.8,0-6.8,1.3-9,3.8c-2.2,2.5-3.4,6.3-3.4,11.4v36.4h-16.9V68.8c0-4.3-0.9-7.7-2.8-10.1
	c-1.8-2.4-4.8-3.6-8.9-3.6c-3.9,0-7,1.3-9.4,3.8c-2.2,2.6-3.4,6.5-3.4,11.8v36h-16.7V41.9z"/>
<path class="st1" d="M439,108c-7.1,0-12.7-1.8-16.7-5.3c-3.9-3.6-5.9-8.3-5.9-14c0-6.8,2.6-12.1,7.8-16c5.2-3.8,12.3-5.8,21.4-5.8
	h17v-0.8c0-3.5-1.2-6.4-3.5-8.5c-2.3-2.2-5.8-3.2-10.6-3.2c-3.7,0-6.8,0.8-9.2,2.3c-2.5,1.4-4.5,3.5-6,6.2l-15.2-7.6
	c3.3-4.3,7.4-7.8,12.2-10.6c5-2.8,11.1-4.2,18.4-4.2c9.6,0,17,2.3,22.2,7c5.2,4.6,7.8,11.1,7.8,19.3v39.8h-16v-10
	c-2.3,3.4-5.6,6.1-9.8,8.2C448.8,107,444.1,108,439,108z M443.8,94.3c2,0,4-0.3,5.9-0.8c1.9-0.6,3.7-1.4,5.4-2.4
	c1.7-1,3.2-2.3,4.4-3.7c1.4-1.4,2.4-3,3.2-4.8v-3.5h-15.2c-5,0-8.5,0.7-10.7,2.2c-2.1,1.4-3.1,3.4-3.1,6
	C433.7,92,437.1,94.3,443.8,94.3z"/>
<path class="st1" d="M487.9,41.9h16.6V50c2.1-3,4.7-5.3,7.9-7c3.3-1.7,7-2.5,11-2.5c7.7,0,13.8,2.4,18.2,7.2
	c4.6,4.7,6.8,11.3,6.8,19.8v39.1h-16.9V70.1c0-4.6-1.1-8.3-3.4-10.9c-2.2-2.7-5.4-4.1-9.8-4.1c-3.9,0-7.2,1.4-9.8,4.2
	c-2.6,2.7-4,6.6-4,11.6v35.8h-16.7V41.9z"/>
<path class="st1" d="M557.7,41.9h16.9v64.8h-16.9V41.9z M555.5,23.6c0-3.1,1-5.7,3-7.7c2-2.1,4.5-3.1,7.6-3.1c3.2,0,5.8,1,7.7,3.1
	c2,2,3,4.6,3,7.7c0,3-1,5.6-3,7.6c-1.9,2-4.5,3-7.7,3c-3.1,0-5.7-1-7.7-3C556.5,29.2,555.5,26.7,555.5,23.6z"/>
<path class="st1" d="M580.5,41.9h10.7v-2.3c0-5.3,0.4-9.7,1.3-13.2c1-3.5,2.5-6.3,4.6-8.4c2.2-2.2,5-3.7,8.5-4.6
	c3.6-0.9,8-1.3,13.3-1.3h4.3v15.1h-2.8c-2.9,0-5.2,0.2-6.8,0.5c-1.7,0.2-3,0.8-4,1.7c-0.9,0.8-1.4,2-1.7,3.5
	c-0.2,1.4-0.4,3.4-0.4,5.9v3.1h15.6v14.9h-15.6v49.9h-16.4V56.8h-10.7V41.9z"/>
<path class="st1" d="M629.9,41.9h16.9v64.8h-16.9V41.9z M627.8,23.6c0-3.1,1-5.7,3-7.7c2-2.1,4.5-3.1,7.6-3.1c3.2,0,5.8,1,7.7,3.1
	c2,2,3,4.6,3,7.7c0,3-1,5.6-3,7.6c-1.9,2-4.5,3-7.7,3c-3.1,0-5.7-1-7.7-3C628.7,29.2,627.8,26.7,627.8,23.6z"/>
<path class="st1" d="M688.5,108c-5.2,0-9.9-0.8-14.2-2.5c-4.2-1.8-7.9-4.2-10.9-7.2c-3-3-5.2-6.6-6.8-10.7
	c-1.6-4.1-2.4-8.5-2.4-13.2c0-4.7,0.8-9.1,2.5-13.2c1.8-4.2,4.2-7.8,7.2-10.8c3-3,6.6-5.4,10.8-7.2c4.2-1.8,8.6-2.6,13.4-2.6
	c4.9,0,9.4,0.8,13.4,2.5c4.1,1.7,7.6,4,10.6,7c3,2.9,5.3,6.4,7,10.4c1.7,4.1,2.5,8.5,2.5,13.3V80h-51.5c1.1,4.2,3.3,7.6,6.5,10.1
	c3.3,2.4,7.3,3.6,12.1,3.6c3.8,0,7.1-0.8,9.7-2.3c2.6-1.6,4.8-3.7,6.4-6.4l13.6,7.9c-3.3,4.6-7.3,8.2-12,10.9
	C701.6,106.6,695.7,108,688.5,108z M688.1,54.6c-4.2,0-7.9,1.1-10.9,3.4c-3,2.2-5.2,5.3-6.6,9.1h34.6c-1.1-4.1-3.2-7.2-6.1-9.2
	C696.1,55.7,692.4,54.6,688.1,54.6z"/>
<path class="st1" d="M758,108c-4,0-7.9-0.8-11.6-2.3c-3.8-1.6-7.1-3.9-10-6.8s-5.2-6.5-7-10.6c-1.8-4.2-2.6-8.8-2.6-14
	c0-5.1,0.8-9.8,2.5-13.9c1.8-4.2,4.1-7.7,7-10.7s6.2-5.2,10-6.7c3.8-1.6,7.8-2.4,12-2.4c4.3,0,8.2,0.8,11.5,2.5
	c3.4,1.7,6.3,4,8.5,7.1V12h16.3v94.7h-16.3v-8.9c-2.3,3.2-5.2,5.7-8.8,7.6C766.1,107.1,762.3,108,758,108z M761.3,92.4
	c2.6,0,4.9-0.5,7.1-1.4c2.2-1,4.2-2.2,5.8-3.8c1.6-1.7,2.8-3.6,3.7-5.8c1-2.2,1.4-4.6,1.4-7.2c0-2.5-0.5-4.8-1.4-7.1
	c-0.9-2.2-2.1-4.2-3.7-5.8c-1.6-1.7-3.5-3-5.8-4c-2.2-1-4.5-1.4-7.1-1.4c-2.5,0-4.8,0.5-7.1,1.4c-2.2,1-4,2.3-5.6,4
	c-1.6,1.6-2.9,3.5-3.8,5.8c-1,2.2-1.4,4.5-1.4,7.1s0.5,5,1.4,7.2c1,2.2,2.2,4.1,3.8,5.8c1.6,1.6,3.5,2.9,5.6,3.8
	C756.4,91.9,758.8,92.4,761.3,92.4z"/>
<g>
	<circle class="st0" cx="95.7" cy="110" r="11"/>
	<circle class="st0" cx="44.7" cy="11" r="11"/>
	<path class="st0" d="M120.2,72h-13.5V50h14c6.1,0,11-4.9,11-11s-4.9-11-11-11h-14V11c0-6.1-4.9-11-11-11s-11,4.9-11,11v17h-65
		c-6.1,0-11,4.9-11,11s4.9,11,11,11h14v22H20.2c-6.4,0-11.5,5.1-11.5,11.5S13.9,95,20.2,95h13.5v15c0,6.1,4.9,11,11,11s11-4.9,11-11
		V95h64.5c6.4,0,11.5-5.1,11.5-11.5S126.6,72,120.2,72z M55.7,50h29v22h-29V50z"/>
</g>
</svg>
