<?xml version="1.0" encoding="utf-8"?>
<!-- Generator: Adobe Illustrator 24.3.0, SVG Export Plug-In . SVG Version: 6.00 Build 0)  -->
<svg version="1.1" id="Capa_1" xmlns="http://www.w3.org/2000/svg" xmlns:xlink="http://www.w3.org/1999/xlink" x="0px" y="0px"
	 viewBox="0 0 788.8 125.1" style="enable-background:new 0 0 788.8 125.1;" xml:space="preserve">
<style type="text/css">
	.st0{fill:#FFFFFF;}
	.st1{fill-rule:evenodd;clip-rule:evenodd;fill:#FFC4DD;}
	.st2{fill:#FFC4DD;}
</style>
<path class="st0" d="M164.4,13.2h16.4v37.7c2.1-2.8,4.8-5.1,8-6.7c3.3-1.7,7-2.6,10.8-2.5c3.6-0.1,7.1,0.6,10.4,1.9
	c3,1.1,5.7,2.9,7.9,5.3c2.2,2.5,3.9,5.4,5,8.5c1.3,3.6,1.9,7.4,1.8,11.3v39.1h-17V71.1c0-4.7-1.1-8.3-3.4-10.9
	c-2.2-2.6-5.5-4-9.8-4.1c-3.7-0.1-7.3,1.5-9.8,4.2c-2.7,2.7-4,6.6-4,11.6v35.8h-16.4V13.2z"/>
<path class="st0" d="M258.3,109c-8,0-14.2-2.4-18.6-7.2c-4.4-4.8-6.6-11.5-6.6-20V42.9H250v36.6c0,4.6,1.1,8.2,3.2,10.8
	c2.2,2.6,5.5,4,10,4c3.7,0.1,7.2-1.4,9.7-4.1c2.6-2.7,3.8-6.6,3.8-11.6V42.9l16.8-0.1v64.8l-16.6,0.1v-8.2c-2,2.9-4.8,5.3-7.9,7
	C265.8,108.3,262.1,109.1,258.3,109z"/>
<path class="st0" d="M303.2,42.9h16.6v7.7c2-2.8,4.6-5,7.6-6.6c3.2-1.6,6.8-2.5,10.4-2.4c4.3-0.1,8.5,0.9,12.2,2.9
	c3.3,1.8,5.9,4.6,7.6,8c2-3.3,4.9-6,8.3-7.9c3.7-2,7.8-3.1,12-3c8.2,0,14.4,2.4,18.5,7.1s6.2,11.1,6.2,19.2v39.8h-17V70.3
	c0-4.4-1-7.8-2.9-10.3c-1.9-2.5-5-3.8-9.1-3.8c-3.4-0.1-6.7,1.3-9,3.8c-2.2,2.5-3.4,6.3-3.4,11.4v36.4h-16.9V69.8
	c0-4.3-0.9-7.7-2.8-10.1c-1.8-2.4-4.8-3.6-8.9-3.6c-3.5-0.2-7,1.3-9.4,3.9c-2.2,2.6-3.4,6.5-3.4,11.8v36h-16.7V42.9z"/>
<path class="st0" d="M431.7,109c-7.1,0-12.7-1.7-16.7-5.2c-3.9-3.6-6.1-8.7-5.9-14c0-6.8,2.6-12.1,7.8-16c5.2-3.9,12.3-5.8,21.4-5.8
	h17v-0.8c0.1-3.2-1.1-6.3-3.5-8.5c-2.3-2.2-5.8-3.2-10.6-3.2c-3.2-0.1-6.4,0.7-9.2,2.3c-2.5,1.5-4.6,3.7-6,6.2l-15.2-7.6
	c3.3-4.3,7.5-7.9,12.3-10.6c5-2.8,11.1-4.2,18.4-4.2c9.6,0,17,2.3,22.2,7s7.8,11.1,7.8,19.3v39.8h-16v-10c-2.5,3.5-5.9,6.3-9.8,8.2
	C441.3,108,436.5,109.1,431.7,109z M436.5,95.3c2,0,4-0.3,5.9-0.8c1.9-0.6,3.7-1.4,5.4-2.4c1.7-1,3.1-2.3,4.4-3.7
	c1.3-1.4,2.4-3,3.2-4.8v-3.4h-15.2c-5,0-8.5,0.7-10.7,2.2c-2,1.3-3.2,3.6-3.1,6C426.4,93,429.8,95.4,436.5,95.3L436.5,95.3z"/>
<path class="st0" d="M480.6,42.9h16.6v8.2c2-2.9,4.8-5.3,7.9-7c3.4-1.7,7.2-2.6,11-2.5c7.7,0,13.8,2.4,18.2,7.2s6.8,11.4,6.8,19.8
	v39.1h-16.9V71.1c0-4.7-1.1-8.3-3.4-10.9c-2.2-2.6-5.5-4-9.8-4.1c-3.7-0.1-7.3,1.5-9.8,4.2c-2.7,2.7-4,6.6-4,11.6v35.8h-16.6V42.9z"
	/>
<path class="st0" d="M550.4,42.9h16.9v64.8h-16.9V42.9z M548.2,24.7c-0.1-2.9,1-5.6,3-7.7c4.2-4.2,11-4.2,15.2,0c2,2,3.1,4.8,3,7.7
	c0.2,5.7-4.3,10.4-9.9,10.6c-0.2,0-0.5,0-0.7,0c-5.6,0.3-10.3-4-10.6-9.6C548.2,25.3,548.2,25,548.2,24.7z"/>
<path class="st0" d="M573.2,42.9h10.7v-2.3c-0.1-4.4,0.4-8.9,1.3-13.2c0.8-3.2,2.3-6,4.6-8.4c2.4-2.3,5.3-3.9,8.5-4.6
	c4.4-1,8.8-1.4,13.3-1.3h4.3v15.1h-2.8c-2.3,0-4.6,0.1-6.8,0.5c-1.5,0.1-2.9,0.7-4,1.7c-0.9,0.9-1.5,2.2-1.7,3.5
	c-0.3,1.9-0.4,3.9-0.4,5.9v3.1h15.6v14.9h-15.6v49.9h-16.4V57.8h-10.7V42.9z"/>
<path class="st0" d="M622.6,42.9h16.9v64.8h-16.9V42.9z M620.5,24.7c-0.1-2.9,1-5.6,3-7.7c4.2-4.2,11-4.2,15.2,0c2,2,3.1,4.8,3,7.7
	c0.2,5.7-4.3,10.4-9.9,10.6c-0.3,0-0.5,0-0.8,0c-5.6,0.3-10.3-4-10.6-9.6C620.4,25.3,620.4,25,620.5,24.7L620.5,24.7z"/>
<path class="st0" d="M681.2,109c-4.8,0.1-9.7-0.8-14.2-2.5c-4.1-1.7-7.8-4.1-10.9-7.2c-3-3.1-5.3-6.7-6.8-10.7
	c-1.6-4.2-2.4-8.7-2.4-13.2c0-4.5,0.8-9,2.5-13.2c3.4-8.2,9.8-14.6,18-18c4.3-1.8,8.8-2.7,13.4-2.6c4.6-0.1,9.2,0.8,13.4,2.5
	c4,1.6,7.5,4,10.6,7c3,3,5.4,6.5,7,10.4c1.7,4.2,2.6,8.8,2.5,13.3v6.2h-51.5c1,4,3.2,7.5,6.5,10.1c3.5,2.5,7.8,3.7,12.1,3.6
	c3.4,0.1,6.7-0.7,9.7-2.3c2.6-1.6,4.8-3.8,6.4-6.4l13.6,7.8c-3.2,4.5-7.3,8.2-12,10.9C694.4,107.6,688.4,109,681.2,109z M680.8,55.6
	c-3.9-0.1-7.7,1.1-10.9,3.4c-3.1,2.3-5.4,5.5-6.6,9.1h34.6c-0.9-3.7-3-7-6.1-9.2C688.6,56.6,684.7,55.5,680.8,55.6L680.8,55.6z"/>
<path class="st0" d="M750.8,109c-4,0-7.9-0.8-11.6-2.3c-3.8-1.6-7.2-3.9-10-6.8c-3-3.1-5.3-6.6-7-10.6c-1.8-4.4-2.7-9.2-2.6-14
	c-0.1-4.8,0.8-9.5,2.5-13.9c1.6-4,4-7.6,7-10.7c2.8-2.9,6.2-5.2,10-6.7c3.8-1.6,7.9-2.4,12-2.4c4-0.1,7.9,0.8,11.5,2.5
	c3.4,1.6,6.3,4.1,8.5,7.1V13h16.3v94.7H771v-8.8C766.3,105.4,758.8,109.2,750.8,109z M754,93.4c2.4,0,4.8-0.5,7.1-1.4
	c6.7-2.9,11-9.5,10.9-16.8c0-2.4-0.5-4.8-1.4-7.1c-0.8-2.2-2.1-4.1-3.7-5.8c-3.4-3.5-8-5.4-12.8-5.4c-2.4,0-4.8,0.5-7.1,1.4
	c-2.1,0.9-4,2.3-5.6,4c-1.6,1.7-2.9,3.6-3.8,5.8c-1,2.2-1.5,4.6-1.4,7c0,2.5,0.5,4.9,1.4,7.2c0.9,2.1,2.2,4.1,3.8,5.8
	c1.6,1.6,3.5,2.9,5.6,3.8C749.2,93,751.6,93.4,754,93.4z"/>
<g>
	<path class="st1" d="M88.4,1c-6.1,0-11,4.9-11,11v17h-65c-6.1,0-11,4.9-11,11s4.9,11,11,11h14v22H12.9C6.6,73,1.4,78.1,1.4,84.5
		S6.6,96,12.9,96h13.5v17c0,6.1,4.9,11,11,11s11-4.9,11-11V96h64.5c6.4,0,11.5-5.1,11.5-11.5S119.3,73,112.9,73H99.4V51h14
		c6.1,0,11-4.9,11-11s-4.9-11-11-11h-14V12C99.4,5.9,94.5,1,88.4,1z M77.4,73V51h-29v22H77.4z"/>
	<path class="st2" d="M77.4,113c0-6.1,4.9-11,11-11s11,4.9,11,11s-4.9,11-11,11l0,0C82.4,124,77.4,119.1,77.4,113z"/>
	<path class="st2" d="M37.4,1c-6.1,0-11,4.9-11,11s4.9,11,11,11s11-4.9,11-11S43.5,1,37.4,1z"/>
</g>
</svg>
