<svg width="309" height="59" viewBox="0 0 309 59" fill="none" xmlns="http://www.w3.org/2000/svg">
<path d="M30.4221 37.24C29.3154 37.24 28.2421 37.0933 27.2021 36.8C26.1754 36.4933 25.3488 36.1 24.7221 35.62L25.8221 33.18C26.4221 33.62 27.1354 33.9733 27.9621 34.24C28.7888 34.5067 29.6154 34.64 30.4421 34.64C31.3621 34.64 32.0421 34.5067 32.4821 34.24C32.9221 33.96 33.1421 33.5933 33.1421 33.14C33.1421 32.8067 33.0088 32.5333 32.7421 32.32C32.4888 32.0933 32.1554 31.9133 31.7421 31.78C31.3421 31.6467 30.7954 31.5 30.1021 31.34C29.0354 31.0867 28.1621 30.8333 27.4821 30.58C26.8021 30.3267 26.2154 29.92 25.7221 29.36C25.2421 28.8 25.0021 28.0533 25.0021 27.12C25.0021 26.3067 25.2221 25.5733 25.6621 24.92C26.1021 24.2533 26.7621 23.7267 27.6421 23.34C28.5354 22.9533 29.6221 22.76 30.9021 22.76C31.7954 22.76 32.6688 22.8667 33.5221 23.08C34.3754 23.2933 35.1221 23.6 35.7621 24L34.7621 26.46C33.4688 25.7267 32.1754 25.36 30.8821 25.36C29.9754 25.36 29.3021 25.5067 28.8621 25.8C28.4354 26.0933 28.2221 26.48 28.2221 26.96C28.2221 27.44 28.4688 27.8 28.9621 28.04C29.4688 28.2667 30.2354 28.4933 31.2621 28.72C32.3288 28.9733 33.2021 29.2267 33.8821 29.48C34.5621 29.7333 35.1421 30.1333 35.6221 30.68C36.1154 31.2267 36.3621 31.9667 36.3621 32.9C36.3621 33.7 36.1354 34.4333 35.6821 35.1C35.2421 35.7533 34.5754 36.2733 33.6821 36.66C32.7888 37.0467 31.7021 37.24 30.4221 37.24ZM38.356 26.24H41.476V37H38.356V26.24ZM39.916 24.74C39.3427 24.74 38.876 24.5733 38.516 24.24C38.156 23.9067 37.976 23.4933 37.976 23C37.976 22.5067 38.156 22.0933 38.516 21.76C38.876 21.4267 39.3427 21.26 39.916 21.26C40.4893 21.26 40.956 21.42 41.316 21.74C41.676 22.06 41.856 22.46 41.856 22.94C41.856 23.46 41.676 23.8933 41.316 24.24C40.956 24.5733 40.4893 24.74 39.916 24.74ZM55.4716 26.24V35.2C55.4716 37.1733 54.9583 38.64 53.9316 39.6C52.905 40.56 51.405 41.04 49.4316 41.04C48.3916 41.04 47.405 40.9133 46.4716 40.66C45.5383 40.4067 44.765 40.04 44.1516 39.56L45.3916 37.32C45.845 37.6933 46.4183 37.9867 47.1116 38.2C47.805 38.4267 48.4983 38.54 49.1916 38.54C50.2716 38.54 51.065 38.2933 51.5716 37.8C52.0916 37.32 52.3516 36.5867 52.3516 35.6V35.14C51.5383 36.0333 50.405 36.48 48.9516 36.48C47.965 36.48 47.0583 36.2667 46.2316 35.84C45.4183 35.4 44.7716 34.7867 44.2916 34C43.8116 33.2133 43.5716 32.3067 43.5716 31.28C43.5716 30.2533 43.8116 29.3467 44.2916 28.56C44.7716 27.7733 45.4183 27.1667 46.2316 26.74C47.0583 26.3 47.965 26.08 48.9516 26.08C50.5116 26.08 51.6983 26.5933 52.5116 27.62V26.24H55.4716ZM49.5716 33.92C50.3983 33.92 51.0716 33.68 51.5916 33.2C52.125 32.7067 52.3916 32.0667 52.3916 31.28C52.3916 30.4933 52.125 29.86 51.5916 29.38C51.0716 28.8867 50.3983 28.64 49.5716 28.64C48.745 28.64 48.065 28.8867 47.5316 29.38C46.9983 29.86 46.7316 30.4933 46.7316 31.28C46.7316 32.0667 46.9983 32.7067 47.5316 33.2C48.065 33.68 48.745 33.92 49.5716 33.92ZM64.9155 26.08C66.2489 26.08 67.3222 26.48 68.1355 27.28C68.9622 28.08 69.3755 29.2667 69.3755 30.84V37H66.2555V31.32C66.2555 30.4667 66.0689 29.8333 65.6955 29.42C65.3222 28.9933 64.7822 28.78 64.0755 28.78C63.2889 28.78 62.6622 29.0267 62.1955 29.52C61.7289 30 61.4955 30.72 61.4955 31.68V37H58.3755V26.24H61.3555V27.5C61.7689 27.0467 62.2822 26.7 62.8955 26.46C63.5089 26.2067 64.1822 26.08 64.9155 26.08ZM84.3077 37.24C82.3077 37.24 80.7477 36.6867 79.6277 35.58C78.5211 34.4733 77.9677 32.8933 77.9677 30.84V23H81.2077V30.72C81.2077 33.2267 82.2477 34.48 84.3277 34.48C85.3411 34.48 86.1144 34.18 86.6477 33.58C87.1811 32.9667 87.4477 32.0133 87.4477 30.72V23H90.6477V30.84C90.6477 32.8933 90.0877 34.4733 88.9677 35.58C87.8611 36.6867 86.3077 37.24 84.3077 37.24ZM99.9895 26.08C100.989 26.08 101.896 26.3133 102.709 26.78C103.536 27.2333 104.183 27.88 104.649 28.72C105.116 29.5467 105.349 30.5133 105.349 31.62C105.349 32.7267 105.116 33.7 104.649 34.54C104.183 35.3667 103.536 36.0133 102.709 36.48C101.896 36.9333 100.989 37.16 99.9895 37.16C98.6161 37.16 97.5361 36.7267 96.7495 35.86V40.88H93.6295V26.24H96.6095V27.48C97.3828 26.5467 98.5095 26.08 99.9895 26.08ZM99.4495 34.6C100.249 34.6 100.903 34.3333 101.409 33.8C101.929 33.2533 102.189 32.5267 102.189 31.62C102.189 30.7133 101.929 29.9933 101.409 29.46C100.903 28.9133 100.249 28.64 99.4495 28.64C98.6495 28.64 97.9895 28.9133 97.4695 29.46C96.9628 29.9933 96.7095 30.7133 96.7095 31.62C96.7095 32.5267 96.9628 33.2533 97.4695 33.8C97.9895 34.3333 98.6495 34.6 99.4495 34.6ZM116.562 25.6V29.3H123.042V31.9H116.562V37H113.322V23H123.902V25.6H116.562ZM130.722 37.16C129.589 37.16 128.569 36.9267 127.662 36.46C126.769 35.98 126.069 35.32 125.562 34.48C125.055 33.64 124.802 32.6867 124.802 31.62C124.802 30.5533 125.055 29.6 125.562 28.76C126.069 27.92 126.769 27.2667 127.662 26.8C128.569 26.32 129.589 26.08 130.722 26.08C131.855 26.08 132.869 26.32 133.762 26.8C134.655 27.2667 135.355 27.92 135.862 28.76C136.369 29.6 136.622 30.5533 136.622 31.62C136.622 32.6867 136.369 33.64 135.862 34.48C135.355 35.32 134.655 35.98 133.762 36.46C132.869 36.9267 131.855 37.16 130.722 37.16ZM130.722 34.6C131.522 34.6 132.175 34.3333 132.682 33.8C133.202 33.2533 133.462 32.5267 133.462 31.62C133.462 30.7133 133.202 29.9933 132.682 29.46C132.175 28.9133 131.522 28.64 130.722 28.64C129.922 28.64 129.262 28.9133 128.742 29.46C128.222 29.9933 127.962 30.7133 127.962 31.62C127.962 32.5267 128.222 33.2533 128.742 33.8C129.262 34.3333 129.922 34.6 130.722 34.6ZM141.688 27.66C142.061 27.14 142.561 26.7467 143.188 26.48C143.828 26.2133 144.561 26.08 145.388 26.08V28.96C145.041 28.9333 144.808 28.92 144.688 28.92C143.794 28.92 143.094 29.1733 142.588 29.68C142.081 30.1733 141.828 30.92 141.828 31.92V37H138.708V26.24H141.688V27.66ZM164.045 34.4V37H153.205V23H163.785V25.6H156.425V28.64H162.925V31.16H156.425V34.4H164.045ZM170.665 26.08C172.331 26.08 173.611 26.48 174.505 27.28C175.398 28.0667 175.845 29.26 175.845 30.86V37H172.925V35.66C172.338 36.66 171.245 37.16 169.645 37.16C168.818 37.16 168.098 37.02 167.485 36.74C166.885 36.46 166.425 36.0733 166.105 35.58C165.785 35.0867 165.625 34.5267 165.625 33.9C165.625 32.9 165.998 32.1133 166.745 31.54C167.505 30.9667 168.671 30.68 170.245 30.68H172.725C172.725 30 172.518 29.48 172.105 29.12C171.691 28.7467 171.071 28.56 170.245 28.56C169.671 28.56 169.105 28.6533 168.545 28.84C167.998 29.0133 167.531 29.2533 167.145 29.56L166.025 27.38C166.611 26.9667 167.311 26.6467 168.125 26.42C168.951 26.1933 169.798 26.08 170.665 26.08ZM170.425 35.06C170.958 35.06 171.431 34.94 171.845 34.7C172.258 34.4467 172.551 34.08 172.725 33.6V32.5H170.585C169.305 32.5 168.665 32.92 168.665 33.76C168.665 34.16 168.818 34.48 169.125 34.72C169.445 34.9467 169.878 35.06 170.425 35.06ZM181.649 27.66C182.022 27.14 182.522 26.7467 183.149 26.48C183.789 26.2133 184.522 26.08 185.349 26.08V28.96C185.002 28.9333 184.769 28.92 184.649 28.92C183.755 28.92 183.055 29.1733 182.549 29.68C182.042 30.1733 181.789 30.92 181.789 31.92V37H178.669V26.24H181.649V27.66ZM187.204 22.16H190.324V37H187.204V22.16ZM203.899 26.24L199.039 37.66C198.546 38.9 197.933 39.7733 197.199 40.28C196.479 40.7867 195.606 41.04 194.579 41.04C194.019 41.04 193.466 40.9533 192.919 40.78C192.373 40.6067 191.926 40.3667 191.579 40.06L192.719 37.84C192.959 38.0533 193.233 38.22 193.539 38.34C193.859 38.46 194.173 38.52 194.479 38.52C194.906 38.52 195.253 38.4133 195.519 38.2C195.786 38 196.026 37.66 196.239 37.18L196.279 37.08L191.619 26.24H194.839L197.859 33.54L200.899 26.24H203.899ZM220.276 34H213.776L212.536 37H209.216L215.456 23H218.656L224.916 37H221.516L220.276 34ZM219.256 31.54L217.036 26.18L214.816 31.54H219.256ZM231.251 37.16C230.105 37.16 229.071 36.9267 228.151 36.46C227.245 35.98 226.531 35.32 226.011 34.48C225.505 33.64 225.251 32.6867 225.251 31.62C225.251 30.5533 225.505 29.6 226.011 28.76C226.531 27.92 227.245 27.2667 228.151 26.8C229.071 26.32 230.105 26.08 231.251 26.08C232.385 26.08 233.371 26.32 234.211 26.8C235.065 27.2667 235.685 27.94 236.071 28.82L233.651 30.12C233.091 29.1333 232.285 28.64 231.231 28.64C230.418 28.64 229.745 28.9067 229.211 29.44C228.678 29.9733 228.411 30.7 228.411 31.62C228.411 32.54 228.678 33.2667 229.211 33.8C229.745 34.3333 230.418 34.6 231.231 34.6C232.298 34.6 233.105 34.1067 233.651 33.12L236.071 34.44C235.685 35.2933 235.065 35.96 234.211 36.44C233.371 36.92 232.385 37.16 231.251 37.16ZM242.931 37.16C241.784 37.16 240.751 36.9267 239.831 36.46C238.924 35.98 238.211 35.32 237.691 34.48C237.184 33.64 236.931 32.6867 236.931 31.62C236.931 30.5533 237.184 29.6 237.691 28.76C238.211 27.92 238.924 27.2667 239.831 26.8C240.751 26.32 241.784 26.08 242.931 26.08C244.064 26.08 245.051 26.32 245.891 26.8C246.744 27.2667 247.364 27.94 247.751 28.82L245.331 30.12C244.771 29.1333 243.964 28.64 242.911 28.64C242.098 28.64 241.424 28.9067 240.891 29.44C240.358 29.9733 240.091 30.7 240.091 31.62C240.091 32.54 240.358 33.2667 240.891 33.8C241.424 34.3333 242.098 34.6 242.911 34.6C243.978 34.6 244.784 34.1067 245.331 33.12L247.751 34.44C247.364 35.2933 246.744 35.96 245.891 36.44C245.051 36.92 244.064 37.16 242.931 37.16ZM259.951 31.66C259.951 31.7 259.931 31.98 259.891 32.5H251.751C251.897 33.1667 252.244 33.6933 252.791 34.08C253.337 34.4667 254.017 34.66 254.831 34.66C255.391 34.66 255.884 34.58 256.311 34.42C256.751 34.2467 257.157 33.98 257.531 33.62L259.191 35.42C258.177 36.58 256.697 37.16 254.751 37.16C253.537 37.16 252.464 36.9267 251.531 36.46C250.597 35.98 249.877 35.32 249.371 34.48C248.864 33.64 248.611 32.6867 248.611 31.62C248.611 30.5667 248.857 29.62 249.351 28.78C249.857 27.9267 250.544 27.2667 251.411 26.8C252.291 26.32 253.271 26.08 254.351 26.08C255.404 26.08 256.357 26.3067 257.211 26.76C258.064 27.2133 258.731 27.8667 259.211 28.72C259.704 29.56 259.951 30.54 259.951 31.66ZM254.371 28.44C253.664 28.44 253.071 28.64 252.591 29.04C252.111 29.44 251.817 29.9867 251.711 30.68H257.011C256.904 30 256.611 29.46 256.131 29.06C255.651 28.6467 255.064 28.44 254.371 28.44ZM265.648 37.16C264.755 37.16 263.881 37.0533 263.028 36.84C262.175 36.6133 261.495 36.3333 260.988 36L262.028 33.76C262.508 34.0667 263.088 34.32 263.768 34.52C264.448 34.7067 265.115 34.8 265.768 34.8C267.088 34.8 267.748 34.4733 267.748 33.82C267.748 33.5133 267.568 33.2933 267.208 33.16C266.848 33.0267 266.295 32.9133 265.548 32.82C264.668 32.6867 263.941 32.5333 263.368 32.36C262.795 32.1867 262.295 31.88 261.868 31.44C261.455 31 261.248 30.3733 261.248 29.56C261.248 28.88 261.441 28.28 261.828 27.76C262.228 27.2267 262.801 26.8133 263.548 26.52C264.308 26.2267 265.201 26.08 266.228 26.08C266.988 26.08 267.741 26.1667 268.488 26.34C269.248 26.5 269.875 26.7267 270.368 27.02L269.328 29.24C268.381 28.7067 267.348 28.44 266.228 28.44C265.561 28.44 265.061 28.5333 264.728 28.72C264.395 28.9067 264.228 29.1467 264.228 29.44C264.228 29.7733 264.408 30.0067 264.768 30.14C265.128 30.2733 265.701 30.4 266.488 30.52C267.368 30.6667 268.088 30.8267 268.648 31C269.208 31.16 269.695 31.46 270.108 31.9C270.521 32.34 270.728 32.9533 270.728 33.74C270.728 34.4067 270.528 35 270.128 35.52C269.728 36.04 269.141 36.4467 268.368 36.74C267.608 37.02 266.701 37.16 265.648 37.16ZM276.273 37.16C275.38 37.16 274.506 37.0533 273.653 36.84C272.8 36.6133 272.12 36.3333 271.613 36L272.653 33.76C273.133 34.0667 273.713 34.32 274.393 34.52C275.073 34.7067 275.74 34.8 276.393 34.8C277.713 34.8 278.373 34.4733 278.373 33.82C278.373 33.5133 278.193 33.2933 277.833 33.16C277.473 33.0267 276.92 32.9133 276.173 32.82C275.293 32.6867 274.566 32.5333 273.993 32.36C273.42 32.1867 272.92 31.88 272.493 31.44C272.08 31 271.873 30.3733 271.873 29.56C271.873 28.88 272.066 28.28 272.453 27.76C272.853 27.2267 273.426 26.8133 274.173 26.52C274.933 26.2267 275.826 26.08 276.853 26.08C277.613 26.08 278.366 26.1667 279.113 26.34C279.873 26.5 280.5 26.7267 280.993 27.02L279.953 29.24C279.006 28.7067 277.973 28.44 276.853 28.44C276.186 28.44 275.686 28.5333 275.353 28.72C275.02 28.9067 274.853 29.1467 274.853 29.44C274.853 29.7733 275.033 30.0067 275.393 30.14C275.753 30.2733 276.326 30.4 277.113 30.52C277.993 30.6667 278.713 30.8267 279.273 31C279.833 31.16 280.32 31.46 280.733 31.9C281.146 32.34 281.353 32.9533 281.353 33.74C281.353 34.4067 281.153 35 280.753 35.52C280.353 36.04 279.766 36.4467 278.993 36.74C278.233 37.02 277.326 37.16 276.273 37.16Z" fill="white"/>
<rect x="1" y="1" width="307" height="57" rx="15" stroke="white" stroke-width="2"/>
</svg>
