<svg fill="none" height="500" viewBox="0 0 1920 500" width="1920" xmlns="http://www.w3.org/2000/svg" xmlns:xlink="http://www.w3.org/1999/xlink"><filter id="a" color-interpolation-filters="sRGB" filterUnits="userSpaceOnUse" height="499.6" width="2168.87" x="-140.4" y=".199951"><feFlood flood-opacity="0" result="BackgroundImageFix"/><feColorMatrix in="SourceAlpha" type="matrix" values="0 0 0 0 0 0 0 0 0 0 0 0 0 0 0 0 0 0 127 0"/><feOffset dy="4"/><feGaussianBlur stdDeviation="50"/><feColorMatrix type="matrix" values="0 0 0 0 0 0 0 0 0 0 0 0 0 0 0 0 0 0 0.25 0"/><feBlend in2="BackgroundImageFix" mode="normal" result="effect1_dropShadow"/><feBlend in="SourceGraphic" in2="effect1_dropShadow" mode="normal" result="shape"/></filter><g filter="url(#a)"><path d="m52.4 393h52v-236h92.8v-44h-237.6v44h92.8zm300.225-216c-29.6 0-54.8 9.6-71.2 27.2v-108h-50v296.8h50v-108c0-42.8 24-64.4 59.6-64.4 32 0 50.8 18.4 50.8 56.4v116h50v-122.4c0-64.4-38-93.6-89.2-93.6zm355.381 110.4c0-66.8-45.6-110.4-108-110.4-63.6 0-110.4 45.6-110.4 109.2s46.4 109.6 118 109.6c36.8 0 66.8-12 86-34.8l-26.8-30.8c-15.2 15.6-34 23.2-58 23.2-37.2 0-63.2-20-69.2-51.2h167.6c.4-4.8.8-10.8.8-14.8zm-108-70.4c32.8 0 56.4 21.2 60.4 52h-121.2c4.8-31.2 28.4-52 60.8-52zm328.175 176h52v-236h92.799v-44h-237.599v44h92.8zm357.949-105.6c0-66.8-45.6-110.4-108-110.4-63.6 0-110.4 45.6-110.4 109.2s46.4 109.6 118 109.6c36.8 0 66.8-12 86-34.8l-26.8-30.8c-15.2 15.6-34 23.2-58 23.2-37.2 0-63.2-20-69.2-51.2h167.6c.4-4.8.8-10.8.8-14.8zm-108-70.4c32.8 0 56.4 21.2 60.4 52h-121.2c4.8-31.2 28.4-52 60.8-52zm231.77-40c-34.4 0-67.6 8.8-90.4 26.4l19.6 36.4c16-13.2 40.8-21.2 64.8-21.2 35.6 0 53.2 17.2 53.2 46.4v3.2h-55.2c-64.8 0-88.8 28-88.8 63.6 0 37.2 30.8 64 79.6 64 32 0 55.2-10.4 67.2-28.8v26h47.2v-125.2c0-61.6-35.6-90.8-97.2-90.8zm-6.8 182.4c-25.6 0-40.8-11.6-40.8-29.6 0-15.6 9.2-28.4 43.2-28.4h51.6v24.8c-8.4 22-29.6 33.2-54 33.2zm437.77-182.4c-34 0-62.8 13.6-80 35.6-14.8-24-40.8-35.6-72-35.6-29.2 0-54 10.4-70 29.6v-27.2h-47.6v213.6h50v-108.4c0-42.4 22.4-64 55.6-64 30.4 0 48 18.4 48 56.4v116h50v-108.4c0-42.4 22.8-64 55.6-64 30.4 0 48 18.4 48 56.4v116h50v-122.4c0-64.4-36-93.6-87.6-93.6z" fill="#2b2729"/></g></svg>