<svg fill="none" height="356" viewBox="0 0 375 356" width="375" xmlns="http://www.w3.org/2000/svg" xmlns:xlink="http://www.w3.org/1999/xlink"><filter id="a" color-interpolation-filters="sRGB" filterUnits="userSpaceOnUse" height="354.9" width="473.272" x="-53.3226" y=".800049"><feFlood flood-opacity="0" result="BackgroundImageFix"/><feColorMatrix in="SourceAlpha" type="matrix" values="0 0 0 0 0 0 0 0 0 0 0 0 0 0 0 0 0 0 127 0"/><feOffset dy="4"/><feGaussianBlur stdDeviation="50"/><feColorMatrix type="matrix" values="0 0 0 0 0 0 0 0 0 0 0 0 0 0 0 0 0 0 0.25 0"/><feBlend in2="BackgroundImageFix" mode="normal" result="effect1_dropShadow"/><feBlend in="SourceGraphic" in2="effect1_dropShadow" mode="normal" result="shape"/></filter><g filter="url(#a)"><path d="m114.946 171h13v-59h23.2v-11h-59.4003v11h23.2003zm75.056-54c-7.4 0-13.7 2.4-17.8 6.8v-27h-12.5v74.2h12.5v-27c0-10.7 6-16.1 14.9-16.1 8 0 12.7 4.6 12.7 14.1v29h12.5v-30.6c0-16.1-9.5-23.4-22.3-23.4zm88.845 27.6c0-16.7-11.4-27.6-27-27.6-15.9 0-27.6 11.4-27.6 27.3s11.6 27.4 29.5 27.4c9.2 0 16.7-3 21.5-8.7l-6.7-7.7c-3.8 3.9-8.5 5.8-14.5 5.8-9.3 0-15.8-5-17.3-12.8h41.9c.1-1.2.2-2.7.2-3.7zm-27-17.6c8.2 0 14.1 5.3 15.1 13h-30.3c1.2-7.8 7.1-13 15.2-13zm-181.9697 124h13v-59h23.1997v-11h-59.3997v11h23.2zm89.4877-26.4c0-16.7-11.4-27.6-27-27.6-15.9 0-27.6 11.4-27.6 27.3s11.6 27.4 29.5 27.4c9.2 0 16.7-3 21.5-8.7l-6.7-7.7c-3.8 3.9-8.5 5.8-14.5 5.8-9.3 0-15.8-5-17.3-12.8h41.9c.1-1.2.2-2.7.2-3.7zm-27-17.6c8.2 0 14.1 5.3 15.1 13h-30.3c1.2-7.8 7.1-13 15.2-13zm57.942-10c-8.6 0-16.9 2.2-22.6 6.6l4.9 9.1c4-3.3 10.2-5.3 16.2-5.3 8.9 0 13.3 4.3 13.3 11.6v.8h-13.8c-16.2 0-22.2 7-22.2 15.9 0 9.3 7.7 16 19.9 16 8 0 13.8-2.6 16.8-7.2v6.5h11.8v-31.3c0-15.4-8.9-22.7-24.3-22.7zm-1.7 45.6c-6.4 0-10.2-2.9-10.2-7.4 0-3.9 2.3-7.1 10.8-7.1h12.9v6.2c-2.1 5.5-7.4 8.3-13.5 8.3zm109.442-45.6c-8.5 0-15.7 3.4-20 8.9-3.7-6-10.2-8.9-18-8.9-7.3 0-13.5 2.6-17.5 7.4v-6.8h-11.9v53.4h12.5v-27.1c0-10.6 5.6-16 13.9-16 7.6 0 12 4.6 12 14.1v29h12.5v-27.1c0-10.6 5.7-16 13.9-16 7.6 0 12 4.6 12 14.1v29h12.5v-30.6c0-16.1-9-23.4-21.9-23.4z" fill="#2b2729"/></g></svg>